<svg xmlns:xlink="http://www.w3.org/1999/xlink" xmlns="http://www.w3.org/2000/svg" class="tw-svg__asset tw-svg__asset--notificationsuccess tw-svg__asset--success" width="15" height="15" version="1.1" viewBox="0 0 20 20" x="0px" y="0px"><path d="M13.74 8.464l-4.445 4.285a.906.906 0 0 1-.629.25.906.906 0 0 1-.629-.25L6.26 11.035a.837.837 0 0 1 0-1.213.914.914 0 0 1 1.257 0l1.15 1.109 3.815-3.68a.915.915 0 0 1 1.258 0 .837.837 0 0 1 0 1.213M10 2a8 8 0 0 0-8 8 8 8 0 1 0 16 0 8 8 0 0 0-8-8" fill-rule="evenodd" fill="#6AC020"></path></svg>